<?xml version="1.0" encoding="UTF-8"?>
<svg id="Layer_2" data-name="Layer 2" xmlns="http://www.w3.org/2000/svg" xmlns:xlink="http://www.w3.org/1999/xlink" viewBox="0 0 1700.79 1417.32">
  <defs>
    <style>
      .cls-1 {
        fill: #fff;
      }

      .cls-2 {
        fill: url(#radial-gradient);
      }
    </style>
    <radialGradient id="radial-gradient" cx="414.61" cy="306.99" fx="414.61" fy="306.99" r="1631.94" gradientTransform="translate(-4.42)" gradientUnits="userSpaceOnUse">
      <stop offset="0" stop-color="#c9c9c9"/>
      <stop offset="1" stop-color="#000"/>
    </radialGradient>
  </defs>
  <g id="Layer_7" data-name="Layer 7">
    <path d="M1535.81,0H145v1417.32h1125.37c165.07,0,299.36-133.58,299.36-297.78V0h-33.92Z"/>
    <path class="cls-1" d="M1501.89,33.75H178.93v1349.83h1091.44c146.36,0,265.44-118.44,265.44-264.03V33.75h-33.92Z"/>
    <path class="cls-2" d="M1270.37,1349.83H212.85V67.49h1289.04v1052.06c0,127.01-103.85,230.28-231.52,230.28Z"/>
    <path d="M989.54,942.57l.21-.29.2-.29.17-.25c64.7-93.21,115.1-170.82,150.81-246.6,41.26-87.58,60.48-167.5,60.48-251.51v-3.07c0-49.87-6.3-96.15-18.73-137.58-13.49-44.98-34.2-84.33-61.56-116.95-29.19-34.82-65.58-61.61-108.14-79.65-42.37-17.95-90.73-27.06-143.74-27.06s-99.1,8.72-141.1,25.9c-44.97,18.4-83.59,46.39-114.8,83.19-61.44,72.45-92.59,176.92-92.59,310.53v73.94h321.86v-73.94c0-63.77,8.74-90.4,13.95-100.6,1.48-2.91,2.53-4.27,2.99-4.78.64-.15,2.22-.44,5.23-.44,1.55,0,2.78.06,3.73.14,2.19,5.1,6.58,19.22,6.58,50.37v3.07c0,99.51-53.92,195.98-153.4,339.17l-.11.15-.11.16-195.67,284.19-6.23,9.05-6.23,9.05v249.52h679.17v-313.81h-261.74l58.63-81.45.13-.18Z"/>
    <g>
      <path d="M601.64,604.97l33.56-7.49-6.19-33.66-6.19-33.66c-15.02-81.72-47.14-146.08-95.48-191.28-26.18-24.48-56.94-43.13-91.42-55.44-33.73-12.04-71.46-18.15-112.13-18.15-45.27,0-87.69,8.33-126.07,24.74-36.37,15.56-68.32,37.97-94.95,66.62-24.8,26.68-44.06,57.72-57.25,92.26-12.68,33.21-19.11,67.92-19.11,103.16,0,60.23,13.57,115.34,40.32,163.79,25.13,45.5,62.07,85.42,109.88,118.79l-110.94,24.31-32.84,7.2-32.84,7.2,5.17,33.06,5.17,33.06c7.62,48.75,21.54,93.13,41.37,131.91,19.35,37.83,44.32,70.42,74.21,96.89,28.57,25.29,61.24,44.66,97.09,57.57,33.76,12.15,69.57,18.32,106.43,18.32,91.53,0,168.77-29.78,223.36-86.12,26.45-27.3,46.73-60.04,60.27-97.29,12.87-35.4,19.39-74.27,19.39-115.52,0-65.56-18.38-126.89-54.63-182.3-30.82-47.11-73.74-88.62-127.58-123.37l-.32-.2-.33-.21-.27-.16,118.73-26.51,33.56-7.49Z"/>
      <path d="M1515.84,639.56l-.33-.21-.32-.2-.27-.17,118.73-26.51,33.56-7.49,33.56-7.49-6.19-33.66-6.19-33.66c-15.02-81.72-47.14-146.08-95.48-191.28-26.18-24.48-56.94-43.13-91.42-55.44-33.73-12.04-71.46-18.15-112.13-18.15-45.27,0-87.68,8.33-126.07,24.74-36.37,15.56-68.32,37.97-94.95,66.62-24.8,26.68-44.06,57.72-57.25,92.26-12.68,33.21-19.11,67.91-19.11,103.16,0,60.23,13.57,115.34,40.32,163.79,25.13,45.5,62.07,85.43,109.89,118.79l-110.94,24.31-32.84,7.2-32.84,7.2,5.17,33.06,5.17,33.06c7.62,48.75,21.54,93.13,41.38,131.91,19.35,37.83,44.31,70.42,74.21,96.89,28.57,25.29,61.24,44.66,97.09,57.57,33.76,12.15,69.57,18.32,106.43,18.32,91.53,0,168.77-29.78,223.36-86.12,26.45-27.3,46.73-60.04,60.27-97.29,12.87-35.4,19.39-74.26,19.39-115.52,0-65.56-18.38-126.89-54.63-182.3-30.82-47.11-73.74-88.62-127.58-123.37Z"/>
    </g>
    <path class="cls-1" d="M960.63,921.86l.17-.25c63.69-91.76,113.21-167.94,147.87-241.51,38.96-82.71,57.11-157.85,57.11-236.47v-3.07c0-46.43-5.8-89.31-17.24-127.45-12.1-40.35-30.53-75.47-54.78-104.39-25.55-30.47-57.42-53.93-94.75-69.75-37.93-16.07-81.6-24.22-129.79-24.22s-89.87,7.82-127.55,23.24c-39.62,16.22-73.64,40.87-101.12,73.27-55.87,65.88-84.19,162.67-84.19,287.68v38.5h250.63v-38.5c0-54.26,5.99-93.51,17.82-116.65,9.04-17.7,20.25-24.6,39.97-24.6s26.95,6.15,31.65,12.8c6.51,9.21,14.27,29.37,14.27,73.14v3.07c0,108.81-56.14,210.24-159.73,359.34l-.04.06-.04.06-195.7,284.23-6.23,9.05v203.12h607.94v-242.94h-295.44l99-137.52.18-.25Z"/>
    <path d="M1130.17,443.64c0,155.17-77.1,282.7-198.67,457.84l-139.36,193.59h329.14v172.08h-536.7v-156.71l195.7-284.23c106.75-153.64,166.05-261.19,166.05-379.49v-3.07c0-87.58-28.17-121.38-81.54-121.38-66.72,0-93.4,58.38-93.4,176.69v3.07h-179.39v-3.07c0-241.21,109.71-348.76,277.25-348.76,177.91,0,260.94,119.84,260.94,290.38v3.07Z"/>
    <g>
      <path class="cls-1" d="M430.77,669.44l-.33-.21-.34-.21-68.32-42c-60.18-41.7-69.92-57.63-69.92-79.51,0-24.03,21.34-26.62,30.52-26.62,10.93,0,18.29,3.82,25.42,13.2,8.06,10.6,14.84,27.52,20.13,50.29l8.01,34.48,34.71-7.75,149.58-33.4,33.56-7.49-6.19-33.66c-13.61-74.08-42.14-131.85-84.78-171.73-45.37-42.42-105.61-63.93-179.03-63.93-40.38,0-78.04,7.35-111.93,21.85-31.74,13.58-59.6,33.12-82.81,58.09-21.67,23.31-38.52,50.47-50.07,80.72-11.13,29.15-16.77,59.61-16.77,90.52,0,108.84,48.09,195.93,142.94,258.85l.52.34.53.32,68.55,42.14c66.62,44.65,88.03,69.52,88.03,102.13,0,10.34-2.41,18.84-6.79,23.95-1.53,1.79-6.19,7.22-20.91,7.22-13.74,0-24.9-5.59-35.14-17.6-14.16-16.61-24.95-44.39-31.18-80.35l-6.37-36.75-36.61,8.02-152.4,33.4-32.84,7.2,5.17,33.06c7.04,45.02,19.79,85.81,37.91,121.23,17.31,33.85,39.55,62.93,66.1,86.43,25.16,22.27,53.92,39.33,85.48,50.69,29.84,10.74,61.55,16.19,94.25,16.19,81.58,0,149.9-26.01,197.58-75.22,22.94-23.68,40.56-52.17,52.38-84.69,11.45-31.5,17.26-66.3,17.26-103.41,0-58.54-16.43-113.34-48.83-162.88-28.07-42.91-67.45-80.9-117.06-112.92Z"/>
      <path class="cls-1" d="M1613.42,782.35c-28.07-42.91-67.45-80.9-117.06-112.92l-.33-.21-.34-.21-68.32-42c-60.18-41.7-69.92-57.63-69.92-79.51,0-24.03,21.34-26.62,30.52-26.62,10.93,0,18.29,3.82,25.42,13.2,8.06,10.6,14.84,27.52,20.13,50.29l8.01,34.48,34.71-7.75,149.58-33.4,33.56-7.49-6.19-33.66c-13.61-74.08-42.14-131.85-84.78-171.73-45.37-42.42-105.61-63.93-179.03-63.93-40.38,0-78.04,7.35-111.93,21.85-31.74,13.58-59.6,33.12-82.81,58.09-21.67,23.31-38.52,50.47-50.07,80.72-11.13,29.15-16.78,59.61-16.78,90.52,0,108.84,48.09,195.93,142.94,258.85l.52.34.53.32,68.55,42.14c66.62,44.65,88.03,69.52,88.03,102.13,0,10.34-2.41,18.84-6.79,23.95-1.53,1.79-6.19,7.22-20.91,7.22-13.74,0-24.9-5.59-35.14-17.6-14.16-16.61-24.95-44.39-31.18-80.35l-6.37-36.75-36.61,8.02-152.4,33.4-32.84,7.2,5.17,33.06c7.04,45.02,19.79,85.81,37.91,121.23,17.31,33.85,39.55,62.93,66.1,86.43,25.16,22.27,53.92,39.33,85.48,50.69,29.84,10.74,61.55,16.19,94.25,16.19,81.58,0,149.9-26.01,197.58-75.22,22.94-23.68,40.56-52.17,52.38-84.69,11.45-31.5,17.26-66.3,17.26-103.41,0-58.54-16.43-113.34-48.83-162.88Z"/>
    </g>
    <path d="M233.49,895.13c15.52,89.56,55.03,127.51,101.6,127.51,43.74,0,63.5-30.36,63.5-66.79,0-54.65-40.92-89.56-104.42-132.07l-69.14-42.5c-84.67-56.17-127-132.07-127-229.22,0-104.74,77.61-215.55,225.78-215.55,131.23,0,204.61,75.9,228.6,206.45l-149.58,33.4c-11.29-48.58-32.46-91.08-80.43-91.08-39.51,0-66.32,25.81-66.32,62.24,0,42.5,26.81,68.31,86.08,109.3l69.14,42.5c84.67,54.65,149.58,136.62,149.58,245.91,0,132.07-81.84,227.7-231.42,227.7-111.48,0-221.54-72.86-248.35-244.4l152.4-33.4Z"/>
    <path d="M1299.07,895.13c15.52,89.56,55.03,127.51,101.6,127.51,43.74,0,63.5-30.36,63.5-66.79,0-54.65-40.92-89.56-104.42-132.07l-69.14-42.5c-84.67-56.17-127-132.07-127-229.22,0-104.74,77.61-215.55,225.78-215.55,131.23,0,204.61,75.9,228.6,206.45l-149.58,33.4c-11.29-48.58-32.46-91.08-80.43-91.08-39.51,0-66.32,25.81-66.32,62.24,0,42.5,26.81,68.31,86.08,109.3l69.14,42.5c84.67,54.65,149.58,136.62,149.58,245.91,0,132.07-81.84,227.7-231.42,227.7-111.48,0-221.54-72.86-248.35-244.4l152.4-33.4Z"/>
  </g>
</svg>