<?xml version="1.0" standalone="no"?>
<!DOCTYPE svg PUBLIC "-//W3C//DTD SVG 1.1//EN" "http://www.w3.org/Graphics/SVG/1.1/DTD/svg11.dtd">
<svg xmlns="http://www.w3.org/2000/svg" xmlns:xlink="http://www.w3.org/1999/xlink" version="1.1" x="0px" y="0px" width="4960.6298828125" height="1417.3199462890625" viewBox="0 0 4960.63 1417.32" style="enable-background:new 0 0 4960.63 1417.32;" xml:space="preserve">
<style type="text/css">
	.st0{display:none;}
	.st1{display:inline;}
	.st2{display:inline;fill:#FFFFFF;}
	.st3{fill:#1F93D1;stroke:#FFFFFF;stroke-width:4.252;stroke-miterlimit:10;}
	.st4{fill:#FFFFFF;}
	.st5{fill:url(#SVGID_1_);}
	.st6{fill:url(#SVGID_2_);}
	.st7{fill:url(#SVGID_3_);}
	.st8{fill:url(#SVGID_4_);}
	.st9{fill:url(#SVGID_5_);}
</style>
<g id="Layer_2_copy">
</g>
<g id="Layer_5">
</g>
<g id="Layer_4">
</g>
<g id="Layer_3">
</g>
<g id="Layer_3_copy">
</g>
<g id="Layer_6">
</g>
<g id="Layer_8">
</g>
<g id="Layer_7">
	<g>
		<g>
			<path d="M3163.97-0.99h-34.18H1830.84h-34.18h-34.18V32.8v33.79v1284.14v33.79v33.79h34.18h34.18h1065.64     c166.34,0,301.66-133.77,301.66-298.19V66.59V32.8V-0.99H3163.97z"/>
		</g>
		<path class="st4" d="M3129.78,32.8H1830.84h-34.18v33.79v1284.14v33.79h34.18h1065.64c147.49,0,267.48-118.61,267.48-264.4V66.59    V32.8H3129.78z"/>
		<g>
			
				<radialGradient id="SVGID_1_" cx="2055.8267" cy="292.1501" r="1558.5902" gradientTransform="matrix(1.0606 0 0 1.0485 -148.5086 0.0965)" gradientUnits="userSpaceOnUse">
				<stop offset="0" style="stop-color:#C9C9C9"/>
				<stop offset="1" style="stop-color:#000000"/>
			</radialGradient>
			<path class="st5" d="M2896.49,1350.73H1830.85V66.59h1298.94v1053.53C3129.78,1247.31,3025.14,1350.73,2896.49,1350.73z"/>
		</g>
	</g>
	<path d="M2612.52,898.21l0.2-0.27l0.19-0.28l0.17-0.24c61.47-89.02,109.36-163.14,143.28-235.52   c39.2-83.65,57.46-159.97,57.46-240.2v-2.94c0-47.62-5.99-91.83-17.79-131.4c-12.82-42.96-32.5-80.54-58.49-111.7   c-27.74-33.25-62.31-58.84-102.75-76.07c-40.26-17.15-86.21-25.84-136.57-25.84c-49.05,0-94.16,8.32-134.06,24.74   c-42.72,17.58-79.42,44.31-109.07,79.45c-58.37,69.19-87.97,168.97-87.97,296.57v2.93v33.84v33.84h33.84h33.84h170.45h33.84h33.84   V511.3v-33.84v-2.93c0-60.9,8.31-86.34,13.26-96.08c1.41-2.78,2.41-4.07,2.84-4.57c0.61-0.15,2.11-0.42,4.97-0.42   c1.47,0,2.64,0.06,3.54,0.13c2.08,4.87,6.25,18.36,6.25,48.11v2.93c0,95.04-51.23,187.17-145.75,323.93l-0.1,0.14l-0.1,0.15   l-185.91,271.42l-5.92,8.64l-5.92,8.64v10.48v10.48v149.67v33.84v33.84h33.84h33.84h509.93h33.84h33.84v-33.84v-33.84v-164.34   v-33.84v-33.84h-33.84h-33.84h-181l55.71-77.79L2612.52,898.21z"/>
	<path d="M2099.95,609.12l-0.33-0.21l-0.3-0.2l-0.31-0.19l-0.32-0.2l-0.33-0.21l113.65-25.51l31.73-7.12l31.73-7.12l-5.85-31.98   l-5.85-31.98c-14.25-77.98-44.74-139.37-90.61-182.49c-24.84-23.34-54.02-41.13-86.74-52.88c-32.01-11.49-67.81-17.31-106.42-17.31   c-42.96,0-83.22,7.94-119.64,23.6c-34.51,14.84-64.82,36.22-90.09,63.55c-4.16,4.49-8.15,9.12-11.97,13.86   c-5.68-11.85-12.36-22.8-20.03-32.82c-16.31-21.29-36.61-37.72-60.33-48.84c-23.29-10.92-49.37-16.45-77.53-16.45   c-35.85,0-70,8.85-103.93,26.99v-15.39h-33.84h-33.84h-146.42l-15.74-5.24c-14.05-4.68-29.03-7.05-44.52-7.05   c-32.14,0-63.92,10.11-91.91,29.23c-6.97,4.76-13.64,10.04-19.98,15.8c-14.91-10.69-31.12-19.64-48.46-26.75   c-33.16-13.6-70.66-20.49-111.46-20.49c-37.03,0-69.78,5.47-100.13,16.73c-26.27,9.75-50.31,23.9-71.67,42.18l0.13-10.14   l0.43-34.27h-0.86v-21.71v-33.84V65.69V31.85V-1.99h-33.84h-33.84H553.67h-33.84h-33.84v33.84v33.84v144.98v33.84v21.71h-0.86   l0.43,34.27l0.11,8.63c-21.4-17.14-45.55-30.59-72.01-40.09c-32.01-11.49-67.81-17.31-106.41-17.31   c-42.96,0-83.22,7.94-119.64,23.6c-34.51,14.84-64.82,36.22-90.09,63.55c-23.53,25.45-41.81,55.05-54.32,88   c-12.03,31.67-18.13,64.78-18.13,98.4c0,57.46,12.88,110.04,38.27,156.26c23.96,43.62,59.24,81.86,104.95,113.79L62.09,818.71   l-31.04,6.84L0,832.39l4.88,31.41l4.88,31.41c7.23,46.52,20.45,88.87,39.28,125.88c18.36,36.09,42.06,67.18,70.43,92.43   c27.12,24.13,58.11,42.6,92.13,54.92c32.03,11.59,66.02,17.47,101,17.47c66.9,0,125.76-16.85,172.94-49.14l-0.42,33.2h34.27h34.27   h103.01c-7.5,19-11.36,39.13-11.36,59.9c0,36.82,11.73,69.93,34.87,98.41c18.85,23.2,44.89,42.34,77.4,56.88   c63.12,28.24,138.91,34.17,191.38,34.17c103.44,0,192.2-22.65,256.67-65.5c35.51-23.6,63.26-52.89,82.48-87.03   c16.67-29.62,26.5-62.11,29.33-96.83h120.73h34.27h34.27h17.85h34.27h156.86h34.27h34.27l-0.43-34.27l-0.38-30.32   c2.88,2.78,5.81,5.5,8.79,8.15c27.12,24.13,58.11,42.6,92.13,54.92c32.03,11.59,66.02,17.47,101,17.47   c86.87,0,160.16-28.41,211.96-82.15c25.1-26.04,44.34-57.26,57.19-92.79c12.21-33.77,18.4-70.85,18.4-110.21   c0-62.54-17.44-121.06-51.85-173.92C2191.81,681.88,2151.06,642.28,2099.95,609.12z M1980.61,898.97c-1.14-1.63-2.44-3.7-3.85-6.29   C1978.42,894.96,1979.67,897.04,1980.61,898.97z M1841.02,795.32l-58.97,12.99V744.6C1799.17,762.91,1818.84,779.83,1841.02,795.32   z M307.87,898.97c-1.14-1.63-2.44-3.7-3.85-6.29C305.67,894.96,306.92,897.04,307.87,898.97z M425.61,608.11l61.71-13.85v61.14   c-18.06-16.57-38.13-32.02-60.12-46.29l-0.33-0.21l-0.3-0.19l-0.3-0.19l-0.32-0.2L425.61,608.11z M1214.98,780.65v180.14   c-18.56-11.26-39.34-20.46-62.06-27.46c-10.88-3.35-22.23-6.21-34-8.56c10.03-7.26,19.45-15.32,28.23-24.15   c28.6-28.87,50.44-66.09,64.94-110.66C1213.09,786.88,1214.05,783.78,1214.98,780.65z"/>
	<path d="M4785.13,609.12l-0.33-0.21l-0.3-0.2l-0.31-0.19l-0.32-0.2l-0.33-0.21l113.65-25.51l31.73-7.12l31.73-7.12l-5.85-31.98   l-5.85-31.98c-14.25-77.98-44.74-139.37-90.61-182.49c-24.84-23.34-54.02-41.13-86.74-52.88c-32.01-11.49-67.81-17.31-106.42-17.31   c-42.96,0-83.22,7.94-119.64,23.6c-34.51,14.84-64.82,36.22-90.09,63.55c-4.16,4.49-8.15,9.12-11.97,13.86   c-5.68-11.85-12.36-22.8-20.03-32.82c-16.31-21.29-36.61-37.72-60.33-48.84c-23.29-10.92-49.37-16.45-77.53-16.45   c-35.85,0-70,8.85-103.93,26.99v-15.39h-33.84h-33.84h-146.42l-15.74-5.24c-14.05-4.68-29.03-7.05-44.52-7.05   c-32.14,0-63.92,10.11-91.91,29.23c-6.97,4.76-13.64,10.04-19.98,15.8c-14.91-10.69-31.12-19.64-48.46-26.75   c-33.16-13.6-70.66-20.49-111.46-20.49c-37.03,0-69.78,5.47-100.13,16.73c-26.27,9.75-50.31,23.9-71.67,42.18l0.13-10.14   l0.43-34.27h-0.86v-21.71v-33.84V65.69V31.85V-1.99h-33.84h-33.84h-156.86H3205h-33.84v33.84v33.84v144.98v33.84v21.71h-0.86   l0.43,34.27l0.11,8.63c-21.4-17.14-45.55-30.59-72.01-40.09c-32.01-11.49-67.81-17.31-106.41-17.31   c-42.96,0-83.22,7.94-119.64,23.6c-34.51,14.84-64.82,36.22-90.09,63.55c-23.53,25.45-41.81,55.05-54.32,88   c-12.03,31.67-18.13,64.78-18.13,98.4c0,57.46,12.88,110.04,38.27,156.26c23.96,43.62,59.24,81.86,104.95,113.79l-106.19,23.39   l-31.04,6.84l-31.04,6.84l4.88,31.41l4.88,31.41c7.23,46.52,20.45,88.87,39.28,125.88c18.36,36.09,42.06,67.18,70.43,92.43   c27.12,24.13,58.11,42.6,92.13,54.92c32.03,11.59,66.02,17.47,101,17.47c66.9,0,125.76-16.85,172.94-49.14l-0.42,33.2h34.27h34.27   h103.01c-7.5,19-11.36,39.13-11.36,59.9c0,36.82,11.73,69.93,34.87,98.41c18.85,23.2,44.89,42.34,77.4,56.88   c63.12,28.24,138.91,34.17,191.38,34.17c103.44,0,192.2-22.65,256.67-65.5c35.51-23.6,63.26-52.89,82.48-87.03   c16.67-29.62,26.5-62.11,29.33-96.83h120.73h34.27h34.27h17.85h34.27h156.86h34.27h34.27l-0.43-34.27l-0.38-30.32   c2.88,2.78,5.81,5.5,8.79,8.15c27.12,24.13,58.11,42.6,92.13,54.92c32.03,11.59,66.02,17.47,101,17.47   c86.87,0,160.16-28.41,211.96-82.15c25.1-26.04,44.34-57.26,57.19-92.79c12.21-33.77,18.4-70.85,18.4-110.21   c0-62.54-17.44-121.06-51.85-173.92C4876.98,681.88,4836.24,642.28,4785.13,609.12z M4665.78,898.97c-1.14-1.63-2.44-3.7-3.85-6.29   C4663.59,894.96,4664.84,897.04,4665.78,898.97z M4526.19,795.32l-58.97,12.99V744.6C4484.34,762.91,4504.02,779.83,4526.19,795.32   z M2993.04,898.97c-1.14-1.63-2.44-3.7-3.85-6.29C2990.85,894.96,2992.1,897.04,2993.04,898.97z M3110.79,608.11l61.71-13.85v61.14   c-18.06-16.57-38.13-32.02-60.12-46.29l-0.33-0.21l-0.3-0.19l-0.3-0.19l-0.32-0.2L3110.79,608.11z M3900.15,780.65v180.14   c-18.56-11.26-39.34-20.46-62.06-27.46c-10.88-3.35-22.23-6.21-34-8.56c10.03-7.26,19.45-15.32,28.23-24.15   c28.6-28.87,50.44-66.09,64.94-110.66C3898.26,786.88,3899.22,783.78,3900.15,780.65z"/>
	<path class="st4" d="M2585.06,878.44l0.17-0.24c60.51-87.63,107.56-160.39,140.49-230.65c37.02-78.99,54.26-150.75,54.26-225.84   v-2.94c0-44.35-5.51-85.3-16.38-121.72c-11.5-38.54-29.01-72.08-52.05-99.7c-24.27-29.1-54.56-51.51-90.02-66.61   c-36.04-15.35-77.53-23.13-123.31-23.13c-44.62,0-85.39,7.47-121.19,22.19c-37.64,15.49-69.97,39.03-96.08,69.98   c-53.08,62.92-79.99,155.36-79.99,274.75v2.93v33.84h33.84h170.45h33.84v-33.84v-2.93c0-51.82,5.7-89.31,16.93-111.41   c8.59-16.91,19.24-23.49,37.98-23.49c18.88,0,25.61,5.87,30.07,12.22c6.19,8.8,13.56,28.05,13.56,69.86v2.93   c0,103.92-53.34,200.79-151.76,343.19l-0.04,0.06l-0.04,0.06l-185.94,271.46l-5.92,8.64v10.48v149.67v33.84h33.84h509.93h33.84   v-33.84v-164.34v-33.84h-33.84h-246.86l94.06-131.34L2585.06,878.44z"/>
	<polygon class="st4" points="710.53,244.51 744.37,244.51 744.37,210.67 744.37,65.69 744.37,31.85 710.53,31.85 553.67,31.85    519.83,31.85 519.83,65.69 519.83,210.67 519.83,244.51 553.67,244.51  "/>
	<path class="st4" d="M2192.7,745.29c-26.65-40.96-64.06-77.22-111.17-107.79l-0.31-0.2l-0.32-0.2L2015.99,597   c-57.25-39.87-66.51-55.12-66.51-76.08c0-23.11,20.4-25.6,29.17-25.6c8.8,0,29.4,0,43.45,60.77l7.57,32.76l32.81-7.36l142.11-31.89   l31.73-7.12l-5.85-31.98c-12.93-70.71-40.01-125.86-80.5-163.91c-43.07-40.48-100.26-61.01-169.98-61.01   c-38.34,0-74.1,7.02-106.27,20.85c-30.13,12.96-56.58,31.61-78.62,55.43c-20.58,22.25-36.57,48.17-47.53,77.04   c-0.26,0.68-0.5,1.36-0.75,2.05c-3.85-41.01-15.71-74.71-35.42-100.43c-26.09-34.04-64.47-52.04-110.99-52.04   c-34.57,0-67.55,9.94-100.83,30.37c-11.83,7.26-23.87,15.86-36.94,26.49V333.9v-33.84h-33.84h-147.48h-4.43l-20.94-6.97   c-10.6-3.53-21.98-5.31-33.83-5.31c-25.3,0-50.48,8.07-72.82,23.33c-13.48,9.21-25.52,20.71-36.04,34.39   c-32.96-32.01-84.27-59.93-162.95-59.93c-32.94,0-61.84,4.78-88.36,14.62c-27.62,10.25-52.38,26.2-73.59,47.42   c-17.89,17.71-32.92,38.69-44.95,62.64l0.96-75.91l0.43-34.27h-34.27H553.67H519.4l0.43,34.27l0.87,68.44   c-12.14-21.61-26.64-40.38-43.47-56.19c-43.07-40.48-100.26-61.01-169.98-61.01c-38.34,0-74.1,7.02-106.27,20.85   c-30.13,12.96-56.58,31.61-78.62,55.43c-20.58,22.25-36.57,48.17-47.53,77.04c-10.57,27.82-15.93,56.89-15.93,86.39   c0,103.89,45.67,187.01,135.73,247.07l0.49,0.33l0.5,0.31l65.13,40.25c63.37,42.69,83.72,66.47,83.72,97.69   c0,9.91-2.31,18.08-6.49,22.99c-1.47,1.72-5.93,6.96-20,6.96c-13.11,0-23.76-5.36-33.52-16.87   c-13.48-15.89-23.73-42.45-29.66-76.82l-6.02-34.92l-34.61,7.62l-144.8,31.89l-31.04,6.84l4.88,31.41   c6.68,42.98,18.79,81.92,36,115.73c16.44,32.31,37.56,60.07,62.76,82.49c23.89,21.26,51.2,37.53,81.15,48.38   c28.33,10.25,58.44,15.45,89.49,15.45c77.46,0,142.33-24.82,187.6-71.79c7.32-7.59,14.05-15.71,20.21-24.31l-0.58,45.88   l-0.43,34.27h34.27h156.86h7.65c-25.53,26.92-39.02,59.27-39.02,93.74c0,28.85,9.18,54.78,27.29,77.07   c15.48,19.05,37.33,34.97,64.96,47.33c57.67,25.8,128.39,31.22,177.55,31.22c96.76,0,179.03-20.69,237.94-59.84   c31.02-20.62,55.15-46,71.72-75.44c17.15-30.47,25.84-64.63,25.84-101.52c0-4.24-0.13-8.42-0.35-12.55h154.06h34.27l-0.43-34.27   l-1.34-105.61V530.92c19.53-14.1,36.78-25.45,53.31-25.45c0.29,0,0.57,0,0.82,0.01c0.32,1.61,0.66,3.92,0.92,7.17   c0.61,7.42,0.61,16.55,0.61,27.12v456.46l-1.34,105.61l-0.43,34.27h34.27h156.86h34.27l-0.43-34.27l-1.31-103.7   c1.22,2.56,2.45,5.09,3.72,7.59c16.44,32.31,37.56,60.07,62.76,82.49c23.89,21.26,51.2,37.53,81.15,48.38   c28.33,10.25,58.44,15.45,89.49,15.45c77.46,0,142.33-24.82,187.6-71.79c21.78-22.6,38.51-49.79,49.73-80.82   c10.87-30.07,16.39-63.28,16.39-98.7C2239.07,844.88,2223.47,792.57,2192.7,745.29z M1867.37,772.34l0.49,0.33l0.5,0.31   l65.13,40.25c63.36,42.69,83.72,66.47,83.72,97.69c0,9.91-2.31,18.08-6.49,22.99c-1.47,1.72-5.93,6.96-20,6.96   c-13.11,0-23.76-5.36-33.52-16.87c-13.48-15.89-23.73-42.45-29.66-76.82l-6.02-34.92l-34.61,7.62l-138.7,30.55V626.11   C1768.83,684.22,1808.66,733.19,1867.37,772.34z M1248.33,1034.85c-9.11-11.93-19.88-22.75-32.28-32.36   c-20.33-15.75-44.93-28.14-73.1-36.82c-26.26-8.09-55.77-13.01-87.71-14.62l-111.22-5.8l-0.2-0.01l-0.2-0.01   c-9.31-0.37-16.18-1.12-21.19-1.95c1.37-1.63,2.94-3.36,4.71-5.15c9.21,0.81,18.71,0.81,28.53,0.81c31.84,0,61.27-4.43,87.46-13.15   c31.06-10.35,57.97-26.85,80.01-49.03c24.83-25.06,43.92-57.78,56.77-97.28C1193.24,738.49,1200,689.54,1200,634v-37.69   c0-18.96-0.51-42.09-3.61-66.12c2.03-0.11,4.21-0.17,6.56-0.17c11.26,0,25.24,1.34,38.67,2.8l7.19,0.78v462.63L1248.33,1034.85z    M743.03,816.45c9.9,19.43,21.84,36.52,35.79,51.12c-13.74,13.89-25.8,29.24-35.79,45.3V816.45z M408.79,637.51l-0.31-0.2   l-0.32-0.2L343.25,597c-57.24-39.87-66.51-55.12-66.51-76.08c0-23.11,20.4-25.6,29.17-25.6c8.8,0,29.4,0,43.45,60.77l7.57,32.76   l32.81-7.36l131.43-29.5v195.21c-0.41-0.63-0.8-1.27-1.21-1.9C493.3,704.34,455.9,668.07,408.79,637.51z M984.85,642.7   c0,26.81,0,54.53-6.05,72.22c-3.79,11.08-7.84,15.72-23.12,15.72c-19.41,0-23.37-6.77-26.86-16.34   c-6.34-17.41-6.34-44.96-6.34-71.6v-60.89c0-26.64,0-54.2,6.34-71.6c3.48-9.57,7.45-16.34,26.86-16.34   c15.29,0,19.35,4.6,23.15,15.61c6.03,17.47,6.03,44.62,6.03,70.88V642.7z M904.49,1177.14c5.62-4.63,13.59-9.87,24.24-15.93   l101.55,5.29c33.15,1.84,43.43,7.75,45.73,9.45c0,0.08,0,0.16,0,0.25c0,0.39-0.03,0.6-0.05,0.68c-0.26,0.39-3.46,4.71-17.27,9.08   c-18.03,5.7-44.57,8.59-78.89,8.59c-54.92,0-75.13-7.8-81.53-11.4C899.34,1181.82,901.23,1179.82,904.49,1177.14z M744.37,1101.84   l-0.1-7.78c3.83,3.81,7.97,7.45,12.5,10.93c-4.25,2.65-8.32,5.41-12.26,8.26L744.37,1101.84z"/>
	<polygon class="st4" points="3395.7,244.51 3429.54,244.51 3429.54,210.67 3429.54,65.69 3429.54,31.85 3395.7,31.85    3238.84,31.85 3205,31.85 3205,65.69 3205,210.67 3205,244.51 3238.84,244.51  "/>
	<path class="st4" d="M4877.87,745.29c-26.65-40.96-64.06-77.22-111.17-107.79l-0.31-0.2l-0.32-0.2L4701.17,597   c-57.25-39.87-66.51-55.12-66.51-76.08c0-23.11,20.4-25.6,29.17-25.6c8.8,0,29.4,0,43.45,60.77l7.57,32.76l32.81-7.36l142.11-31.89   l31.73-7.12l-5.85-31.98c-12.93-70.71-40.01-125.86-80.5-163.91c-43.07-40.48-100.27-61.01-169.98-61.01   c-38.34,0-74.1,7.02-106.27,20.85c-30.13,12.96-56.58,31.61-78.62,55.43c-20.58,22.25-36.57,48.17-47.53,77.04   c-0.26,0.68-0.5,1.36-0.75,2.05c-3.85-41.01-15.71-74.71-35.42-100.43c-26.09-34.04-64.47-52.04-110.99-52.04   c-34.57,0-67.55,9.94-100.83,30.37c-11.83,7.26-23.87,15.86-36.94,26.49V333.9v-33.84h-33.84h-147.48h-4.43l-20.94-6.97   c-10.6-3.53-21.98-5.31-33.83-5.31c-25.3,0-50.48,8.07-72.82,23.33c-13.48,9.21-25.52,20.71-36.04,34.39   c-32.96-32.01-84.27-59.93-162.95-59.93c-32.94,0-61.84,4.78-88.36,14.62c-27.62,10.25-52.38,26.2-73.59,47.42   c-17.89,17.71-32.92,38.69-44.95,62.64l0.96-75.91l0.43-34.27h-34.27h-156.86h-34.27l0.43,34.27l0.87,68.44   c-12.14-21.61-26.64-40.38-43.47-56.19c-43.07-40.48-100.26-61.01-169.98-61.01c-38.34,0-74.1,7.02-106.27,20.85   c-30.13,12.96-56.58,31.61-78.62,55.43c-20.58,22.25-36.57,48.17-47.53,77.04c-10.57,27.82-15.93,56.89-15.93,86.39   c0,103.89,45.67,187.01,135.73,247.07l0.49,0.33l0.5,0.31l65.13,40.25c63.37,42.69,83.72,66.47,83.72,97.69   c0,9.91-2.31,18.08-6.49,22.99c-1.47,1.72-5.93,6.96-20,6.96c-13.11,0-23.76-5.36-33.52-16.87   c-13.48-15.89-23.73-42.45-29.66-76.82l-6.02-34.92l-34.61,7.62l-144.8,31.89l-31.04,6.84l4.88,31.41   c6.68,42.98,18.79,81.92,36,115.73c16.44,32.31,37.56,60.07,62.76,82.49c23.89,21.26,51.2,37.53,81.15,48.38   c28.33,10.25,58.44,15.45,89.49,15.45c77.46,0,142.33-24.82,187.6-71.79c7.32-7.59,14.05-15.71,20.21-24.31l-0.58,45.88   l-0.43,34.27h34.27h156.86h7.65c-25.53,26.92-39.02,59.27-39.02,93.74c0,28.85,9.18,54.78,27.29,77.07   c15.48,19.05,37.33,34.97,64.96,47.33c57.67,25.8,128.39,31.22,177.55,31.22c96.76,0,179.03-20.69,237.94-59.84   c31.02-20.62,55.15-46,71.72-75.44c17.15-30.47,25.84-64.63,25.84-101.52c0-4.24-0.13-8.42-0.35-12.55h154.06h34.27l-0.43-34.27   l-1.34-105.61V530.92c19.53-14.1,36.78-25.45,53.31-25.45c0.29,0,0.57,0,0.82,0.01c0.32,1.61,0.66,3.92,0.92,7.17   c0.61,7.42,0.61,16.55,0.61,27.12v456.46l-1.34,105.61l-0.43,34.27h34.27h156.86h34.27l-0.43-34.27l-1.31-103.7   c1.22,2.56,2.45,5.09,3.72,7.59c16.44,32.31,37.56,60.07,62.76,82.49c23.89,21.26,51.2,37.53,81.16,48.38   c28.33,10.25,58.44,15.45,89.49,15.45c77.46,0,142.33-24.82,187.6-71.79c21.78-22.6,38.51-49.79,49.73-80.82   c10.87-30.07,16.39-63.28,16.39-98.7C4924.24,844.88,4908.64,792.57,4877.87,745.29z M4552.54,772.34l0.49,0.33l0.5,0.31   l65.13,40.25c63.36,42.69,83.72,66.47,83.72,97.69c0,9.91-2.31,18.08-6.49,22.99c-1.47,1.72-5.93,6.96-20,6.96   c-13.11,0-23.76-5.36-33.52-16.87c-13.48-15.89-23.73-42.45-29.66-76.82l-6.02-34.92l-34.61,7.62l-138.7,30.55V626.11   C4454,684.22,4493.83,733.19,4552.54,772.34z M3933.5,1034.85c-9.11-11.93-19.88-22.75-32.28-32.36   c-20.33-15.75-44.93-28.14-73.1-36.82c-26.26-8.09-55.77-13.01-87.71-14.62l-111.22-5.8l-0.2-0.01l-0.2-0.01   c-9.31-0.37-16.18-1.12-21.19-1.95c1.37-1.63,2.94-3.36,4.71-5.15c9.21,0.81,18.71,0.81,28.53,0.81c31.84,0,61.27-4.43,87.46-13.15   c31.06-10.35,57.97-26.85,80.01-49.03c24.83-25.06,43.92-57.78,56.77-97.28c13.33-40.99,20.09-89.93,20.09-145.48v-37.69   c0-18.96-0.51-42.09-3.61-66.12c2.03-0.11,4.21-0.17,6.56-0.17c11.26,0,25.24,1.34,38.67,2.8l7.19,0.78v462.63L3933.5,1034.85z    M3428.2,816.45c9.9,19.43,21.84,36.52,35.79,51.12c-13.74,13.89-25.8,29.24-35.79,45.3V816.45z M3093.96,637.51l-0.31-0.2   l-0.32-0.2L3028.42,597c-57.24-39.87-66.51-55.12-66.51-76.08c0-23.11,20.4-25.6,29.17-25.6c8.8,0,29.4,0,43.45,60.77l7.57,32.76   l32.81-7.36l131.43-29.5v195.21c-0.41-0.63-0.8-1.27-1.21-1.9C3178.48,704.34,3141.07,668.07,3093.96,637.51z M3670.02,642.7   c0,26.81,0,54.53-6.05,72.22c-3.79,11.08-7.84,15.72-23.12,15.72c-19.41,0-23.37-6.77-26.86-16.34   c-6.34-17.41-6.34-44.96-6.34-71.6v-60.89c0-26.64,0-54.2,6.34-71.6c3.48-9.57,7.45-16.34,26.86-16.34   c15.29,0,19.35,4.6,23.15,15.61c6.03,17.47,6.03,44.62,6.03,70.88V642.7z M3589.66,1177.14c5.62-4.63,13.59-9.87,24.24-15.93   l101.55,5.29c33.15,1.84,43.43,7.75,45.73,9.45c0,0.08,0,0.16,0,0.25c0,0.39-0.03,0.6-0.05,0.68c-0.26,0.39-3.46,4.71-17.27,9.08   c-18.03,5.7-44.57,8.59-78.89,8.59c-54.92,0-75.13-7.8-81.53-11.4C3584.52,1181.82,3586.4,1179.82,3589.66,1177.14z    M3429.54,1101.84l-0.1-7.78c3.83,3.81,7.97,7.45,12.5,10.93c-4.25,2.65-8.32,5.41-12.26,8.26L3429.54,1101.84z"/>
	<path d="M2746.13,421.71c0,148.2-73.25,269.99-188.76,437.26l-132.41,184.88h312.72v164.34h-509.93v-149.67l185.94-271.46   c101.42-146.73,157.77-249.45,157.77-362.43v-2.93c0-83.64-26.76-115.92-77.48-115.92c-63.39,0-88.74,55.76-88.74,168.74v2.93   H2234.8v-2.93c0-230.37,104.24-333.08,263.42-333.08c169.04,0,247.92,114.45,247.92,277.33V421.71z"/>
	<g>
		<path d="M221.44,852.91c14.75,85.54,52.29,121.78,96.53,121.78c41.56,0,60.33-29,60.33-63.79c0-52.19-38.88-85.54-99.21-126.13    l-65.69-40.59C132.95,690.54,92.73,618.05,92.73,525.27c0-100.03,73.74-205.87,214.51-205.87c124.69,0,194.4,72.49,217.19,197.17    l-142.11,31.89c-10.73-46.39-30.84-86.99-76.42-86.99c-37.54,0-63.01,24.65-63.01,59.44c0,40.59,25.47,65.24,81.78,104.38    l65.69,40.59c80.44,52.19,142.11,130.48,142.11,234.86c0,126.13-77.76,217.46-219.88,217.46c-105.92,0-210.49-69.59-235.96-233.41    L221.44,852.91z"/>
	</g>
	<g>
		<path d="M710.53,333.9l-1.34,105.83v556.71l1.34,105.83H553.67l1.34-105.83V439.73l-1.34-105.83H710.53z M553.67,65.69h156.86    v144.98H553.67V65.69z"/>
	</g>
	<g>
		<path d="M916.79,902.2c-18.77,14.5-34.86,34.79-34.86,49.29c0,18.85,24.13,26.1,60.33,27.55l111.28,5.8    c115.3,5.8,197.08,57.99,197.08,163.82c0,126.13-119.32,202.97-301.66,202.97c-122,0-235.96-34.79-235.96-121.78    c0-55.09,45.58-97.13,113.96-120.33v-5.8c-50.95-18.85-81.78-43.49-81.78-91.33c0-47.84,33.52-105.83,81.78-142.08v-5.8    c-60.33-42.04-85.8-123.23-85.8-230.51v-43.49c0-100.03,24.13-172.52,71.06-218.91c36.2-36.24,81.78-52.19,138.09-52.19    c83.12,0,134.07,34.79,163.57,79.74h6.7c32.18-71.04,89.83-85.54,124.69-73.94v173.97c-40.22-4.35-68.38-5.8-87.15,8.7    c6.7,28.99,8.04,59.44,8.04,88.43V634c0,108.73-26.81,178.32-67.04,218.91c-38.88,39.14-91.17,52.19-143.46,52.19    C940.93,905.1,927.52,905.1,916.79,902.2z M1032.09,1132.72l-111.28-5.8c-40.22,21.75-57.65,37.69-57.65,57.99    c0,29,38.88,43.49,116.64,43.49c99.21,0,130.05-23.2,130.05-52.19C1109.85,1148.66,1084.38,1135.62,1032.09,1132.72z     M888.64,642.7c0,59.44,0,121.78,67.04,121.78c63.01,0,63.01-62.34,63.01-121.78v-62.34c0-57.99,0-120.33-63.01-120.33    c-67.04,0-67.04,62.34-67.04,121.78V642.7z"/>
	</g>
	<g>
		<path d="M1560.18,539.76c0-40.59,0-68.14-36.2-68.14c-32.18,0-58.99,21.75-87.15,42.04v482.77l1.34,105.83h-156.86l1.34-105.83    V439.73l-1.34-105.83h147.48v86.99h1.34c64.35-63.79,111.28-98.58,170.27-98.58c72.4,0,113.96,53.64,113.96,149.32v524.81    l1.34,105.83h-156.86l1.34-105.83V539.76z"/>
	</g>
	<g>
		<path d="M1894.19,852.91c14.75,85.54,52.29,121.78,96.53,121.78c41.56,0,60.33-29,60.33-63.79c0-52.19-38.88-85.54-99.21-126.13    l-65.69-40.59c-80.44-53.64-120.66-126.13-120.66-218.91c0-100.03,73.74-205.87,214.51-205.87c124.69,0,194.4,72.49,217.19,197.17    l-142.11,31.89c-10.73-46.39-30.84-86.99-76.42-86.99c-37.54,0-63.01,24.65-63.01,59.44c0,40.59,25.47,65.24,81.78,104.38    l65.69,40.59c80.44,52.19,142.11,130.48,142.11,234.86c0,126.13-77.76,217.46-219.88,217.46c-105.92,0-210.49-69.59-235.96-233.41    L1894.19,852.91z"/>
	</g>
	<g>
		<path d="M2906.61,852.91c14.75,85.54,52.29,121.78,96.53,121.78c41.56,0,60.33-29,60.33-63.79c0-52.19-38.88-85.54-99.21-126.13    l-65.69-40.59c-80.44-53.64-120.66-126.13-120.66-218.91c0-100.03,73.74-205.87,214.51-205.87c124.69,0,194.4,72.49,217.19,197.17    l-142.11,31.89c-10.73-46.39-30.84-86.99-76.42-86.99c-37.54,0-63.01,24.65-63.01,59.44c0,40.59,25.47,65.24,81.78,104.38    l65.69,40.59c80.44,52.19,142.11,130.48,142.11,234.86c0,126.13-77.76,217.46-219.88,217.46c-105.92,0-210.49-69.59-235.96-233.41    L2906.61,852.91z"/>
	</g>
	<g>
		<path d="M3395.7,333.9l-1.34,105.83v556.71l1.34,105.83h-156.86l1.34-105.83V439.73l-1.34-105.83H3395.7z M3238.84,65.69h156.86    v144.98h-156.86V65.69z"/>
	</g>
	<g>
		<path d="M3601.97,902.2c-18.77,14.5-34.86,34.79-34.86,49.29c0,18.85,24.13,26.1,60.33,27.55l111.28,5.8    c115.3,5.8,197.08,57.99,197.08,163.82c0,126.13-119.32,202.97-301.66,202.97c-122,0-235.96-34.79-235.96-121.78    c0-55.09,45.58-97.13,113.96-120.33v-5.8c-50.95-18.85-81.78-43.49-81.78-91.33c0-47.84,33.52-105.83,81.78-142.08v-5.8    c-60.33-42.04-85.8-123.23-85.8-230.51v-43.49c0-100.03,24.13-172.52,71.06-218.91c36.2-36.24,81.78-52.19,138.09-52.19    c83.12,0,134.07,34.79,163.57,79.74h6.7c32.18-71.04,89.83-85.54,124.69-73.94v173.97c-40.22-4.35-68.38-5.8-87.15,8.7    c6.7,28.99,8.04,59.44,8.04,88.43V634c0,108.73-26.81,178.32-67.04,218.91c-38.88,39.14-91.17,52.19-143.46,52.19    C3626.1,905.1,3612.69,905.1,3601.97,902.2z M3717.27,1132.72l-111.28-5.8c-40.22,21.75-57.65,37.69-57.65,57.99    c0,29,38.88,43.49,116.64,43.49c99.21,0,130.05-23.2,130.05-52.19C3795.03,1148.66,3769.55,1135.62,3717.27,1132.72z     M3573.81,642.7c0,59.44,0,121.78,67.04,121.78c63.01,0,63.01-62.34,63.01-121.78v-62.34c0-57.99,0-120.33-63.01-120.33    c-67.04,0-67.04,62.34-67.04,121.78V642.7z"/>
	</g>
	<g>
		<path d="M4245.35,539.76c0-40.59,0-68.14-36.2-68.14c-32.18,0-58.99,21.75-87.15,42.04v482.77l1.34,105.83h-156.86l1.34-105.83    V439.73l-1.34-105.83h147.48v86.99h1.34c64.35-63.79,111.28-98.58,170.27-98.58c72.4,0,113.96,53.64,113.96,149.32v524.81    l1.34,105.83h-156.86l1.34-105.83V539.76z"/>
	</g>
	<g>
		<path d="M4579.36,852.91c14.75,85.54,52.29,121.78,96.53,121.78c41.56,0,60.33-29,60.33-63.79c0-52.19-38.88-85.54-99.21-126.13    l-65.69-40.59c-80.44-53.64-120.66-126.13-120.66-218.91c0-100.03,73.74-205.87,214.51-205.87c124.69,0,194.4,72.49,217.19,197.17    l-142.11,31.89c-10.73-46.39-30.84-86.99-76.42-86.99c-37.54,0-63.01,24.65-63.01,59.44c0,40.59,25.47,65.24,81.78,104.38    l65.69,40.59c80.44,52.19,142.11,130.48,142.11,234.86c0,126.13-77.76,217.46-219.88,217.46c-105.92,0-210.49-69.59-235.96-233.41    L4579.36,852.91z"/>
	</g>
</g>
</svg>